<mxfile host="app.diagrams.net" modified="2021-10-01T17:23:25.815Z" agent="5.0 (Windows NT 10.0; Win64; x64) AppleWebKit/537.36 (KHTML, like Gecko) Chrome/94.0.4606.61 Safari/537.36" etag="VkleHzaiAo7Nwe6lEBNP" version="15.3.8" type="github">
  <diagram id="U9a_3fivp7TNI6zgCbSm" name="Page-1">
    <mxGraphModel dx="2557" dy="992" grid="1" gridSize="10" guides="1" tooltips="1" connect="1" arrows="1" fold="1" page="1" pageScale="1" pageWidth="827" pageHeight="1169" math="0" shadow="0">
      <root>
        <mxCell id="0" />
        <mxCell id="1" parent="0" />
        <mxCell id="SqYTD-_AEtdcNH1bQ4jS-5" value="Pontos turísticos" style="swimlane;fontStyle=0;childLayout=stackLayout;horizontal=1;startSize=26;horizontalStack=0;resizeParent=1;resizeParentMax=0;resizeLast=0;collapsible=1;marginBottom=0;align=center;fontSize=14;" parent="1" vertex="1">
          <mxGeometry x="-160" y="370" width="160" height="266" as="geometry" />
        </mxCell>
        <mxCell id="SqYTD-_AEtdcNH1bQ4jS-27" value="id" style="text;strokeColor=none;fillColor=none;spacingLeft=4;spacingRight=4;overflow=hidden;rotatable=0;points=[[0,0.5],[1,0.5]];portConstraint=eastwest;fontSize=12;" parent="SqYTD-_AEtdcNH1bQ4jS-5" vertex="1">
          <mxGeometry y="26" width="160" height="30" as="geometry" />
        </mxCell>
        <mxCell id="SqYTD-_AEtdcNH1bQ4jS-48" value="Nome" style="text;strokeColor=none;fillColor=none;spacingLeft=4;spacingRight=4;overflow=hidden;rotatable=0;points=[[0,0.5],[1,0.5]];portConstraint=eastwest;fontSize=12;" parent="SqYTD-_AEtdcNH1bQ4jS-5" vertex="1">
          <mxGeometry y="56" width="160" height="30" as="geometry" />
        </mxCell>
        <mxCell id="SqYTD-_AEtdcNH1bQ4jS-6" value="preço" style="text;strokeColor=none;fillColor=none;spacingLeft=4;spacingRight=4;overflow=hidden;rotatable=0;points=[[0,0.5],[1,0.5]];portConstraint=eastwest;fontSize=12;" parent="SqYTD-_AEtdcNH1bQ4jS-5" vertex="1">
          <mxGeometry y="86" width="160" height="30" as="geometry" />
        </mxCell>
        <mxCell id="SqYTD-_AEtdcNH1bQ4jS-7" value="coordenadas" style="text;strokeColor=none;fillColor=none;spacingLeft=4;spacingRight=4;overflow=hidden;rotatable=0;points=[[0,0.5],[1,0.5]];portConstraint=eastwest;fontSize=12;" parent="SqYTD-_AEtdcNH1bQ4jS-5" vertex="1">
          <mxGeometry y="116" width="160" height="30" as="geometry" />
        </mxCell>
        <mxCell id="SqYTD-_AEtdcNH1bQ4jS-28" value="classificação" style="text;strokeColor=none;fillColor=none;spacingLeft=4;spacingRight=4;overflow=hidden;rotatable=0;points=[[0,0.5],[1,0.5]];portConstraint=eastwest;fontSize=12;" parent="SqYTD-_AEtdcNH1bQ4jS-5" vertex="1">
          <mxGeometry y="146" width="160" height="30" as="geometry" />
        </mxCell>
        <mxCell id="SqYTD-_AEtdcNH1bQ4jS-39" value="tempo_medio" style="text;strokeColor=none;fillColor=none;spacingLeft=4;spacingRight=4;overflow=hidden;rotatable=0;points=[[0,0.5],[1,0.5]];portConstraint=eastwest;fontSize=12;" parent="SqYTD-_AEtdcNH1bQ4jS-5" vertex="1">
          <mxGeometry y="176" width="160" height="30" as="geometry" />
        </mxCell>
        <mxCell id="GHF8NvtgJmu9-mj9dW5s-21" value="comentários" style="text;strokeColor=none;fillColor=none;spacingLeft=4;spacingRight=4;overflow=hidden;rotatable=0;points=[[0,0.5],[1,0.5]];portConstraint=eastwest;fontSize=12;" vertex="1" parent="SqYTD-_AEtdcNH1bQ4jS-5">
          <mxGeometry y="206" width="160" height="30" as="geometry" />
        </mxCell>
        <mxCell id="SqYTD-_AEtdcNH1bQ4jS-8" value="lugares_proximos" style="text;strokeColor=none;fillColor=none;spacingLeft=4;spacingRight=4;overflow=hidden;rotatable=0;points=[[0,0.5],[1,0.5]];portConstraint=eastwest;fontSize=12;" parent="SqYTD-_AEtdcNH1bQ4jS-5" vertex="1">
          <mxGeometry y="236" width="160" height="30" as="geometry" />
        </mxCell>
        <mxCell id="SqYTD-_AEtdcNH1bQ4jS-19" value="grupo" style="swimlane;fontStyle=0;childLayout=stackLayout;horizontal=1;startSize=26;horizontalStack=0;resizeParent=1;resizeParentMax=0;resizeLast=0;collapsible=1;marginBottom=0;align=center;fontSize=14;" parent="1" vertex="1">
          <mxGeometry x="414" y="350" width="160" height="86" as="geometry" />
        </mxCell>
        <mxCell id="SqYTD-_AEtdcNH1bQ4jS-20" value="id" style="text;strokeColor=none;fillColor=none;spacingLeft=4;spacingRight=4;overflow=hidden;rotatable=0;points=[[0,0.5],[1,0.5]];portConstraint=eastwest;fontSize=12;" parent="SqYTD-_AEtdcNH1bQ4jS-19" vertex="1">
          <mxGeometry y="26" width="160" height="30" as="geometry" />
        </mxCell>
        <mxCell id="SqYTD-_AEtdcNH1bQ4jS-49" value="Idade (A pessoa vai por a idade)" style="text;strokeColor=none;fillColor=none;spacingLeft=4;spacingRight=4;overflow=hidden;rotatable=0;points=[[0,0.5],[1,0.5]];portConstraint=eastwest;fontSize=12;" parent="SqYTD-_AEtdcNH1bQ4jS-19" vertex="1">
          <mxGeometry y="56" width="160" height="30" as="geometry" />
        </mxCell>
        <mxCell id="SqYTD-_AEtdcNH1bQ4jS-26" value="" style="fontSize=12;html=1;endArrow=ERoneToMany;fontStyle=0;align=center;exitX=-0.028;exitY=0.242;exitDx=0;exitDy=0;exitPerimeter=0;entryX=0.991;entryY=0.05;entryDx=0;entryDy=0;entryPerimeter=0;startArrow=none;" parent="1" source="SqYTD-_AEtdcNH1bQ4jS-31" target="SqYTD-_AEtdcNH1bQ4jS-5" edge="1">
          <mxGeometry width="100" height="100" relative="1" as="geometry">
            <mxPoint x="510" y="340" as="sourcePoint" />
            <mxPoint x="550" y="240" as="targetPoint" />
          </mxGeometry>
        </mxCell>
        <mxCell id="SqYTD-_AEtdcNH1bQ4jS-43" value="Categorias" style="swimlane;fontStyle=0;childLayout=stackLayout;horizontal=1;startSize=26;horizontalStack=0;resizeParent=1;resizeParentMax=0;resizeLast=0;collapsible=1;marginBottom=0;align=center;fontSize=14;" parent="1" vertex="1">
          <mxGeometry x="-20" y="720" width="160" height="86" as="geometry" />
        </mxCell>
        <mxCell id="SqYTD-_AEtdcNH1bQ4jS-44" value="id" style="text;strokeColor=none;fillColor=none;spacingLeft=4;spacingRight=4;overflow=hidden;rotatable=0;points=[[0,0.5],[1,0.5]];portConstraint=eastwest;fontSize=12;" parent="SqYTD-_AEtdcNH1bQ4jS-43" vertex="1">
          <mxGeometry y="26" width="160" height="30" as="geometry" />
        </mxCell>
        <mxCell id="SqYTD-_AEtdcNH1bQ4jS-45" value="categorias" style="text;strokeColor=none;fillColor=none;spacingLeft=4;spacingRight=4;overflow=hidden;rotatable=0;points=[[0,0.5],[1,0.5]];portConstraint=eastwest;fontSize=12;" parent="SqYTD-_AEtdcNH1bQ4jS-43" vertex="1">
          <mxGeometry y="56" width="160" height="30" as="geometry" />
        </mxCell>
        <mxCell id="GHF8NvtgJmu9-mj9dW5s-1" value="Utilizadores" style="swimlane;fontStyle=0;childLayout=stackLayout;horizontal=1;startSize=26;horizontalStack=0;resizeParent=1;resizeParentMax=0;resizeLast=0;collapsible=1;marginBottom=0;align=center;fontSize=14;" vertex="1" parent="1">
          <mxGeometry x="-60" y="35" width="160" height="86" as="geometry" />
        </mxCell>
        <mxCell id="GHF8NvtgJmu9-mj9dW5s-22" value="id" style="text;strokeColor=none;fillColor=none;spacingLeft=4;spacingRight=4;overflow=hidden;rotatable=0;points=[[0,0.5],[1,0.5]];portConstraint=eastwest;fontSize=12;" vertex="1" parent="GHF8NvtgJmu9-mj9dW5s-1">
          <mxGeometry y="26" width="160" height="30" as="geometry" />
        </mxCell>
        <mxCell id="GHF8NvtgJmu9-mj9dW5s-2" value="data_nascimento" style="text;strokeColor=none;fillColor=none;spacingLeft=4;spacingRight=4;overflow=hidden;rotatable=0;points=[[0,0.5],[1,0.5]];portConstraint=eastwest;fontSize=12;" vertex="1" parent="GHF8NvtgJmu9-mj9dW5s-1">
          <mxGeometry y="56" width="160" height="30" as="geometry" />
        </mxCell>
        <mxCell id="GHF8NvtgJmu9-mj9dW5s-13" value="Minhas rotas" style="swimlane;fontStyle=0;childLayout=stackLayout;horizontal=1;startSize=26;horizontalStack=0;resizeParent=1;resizeParentMax=0;resizeLast=0;collapsible=1;marginBottom=0;align=center;fontSize=14;" vertex="1" parent="1">
          <mxGeometry x="-170" y="187" width="160" height="62" as="geometry" />
        </mxCell>
        <mxCell id="GHF8NvtgJmu9-mj9dW5s-17" value="Rotas populares" style="swimlane;fontStyle=0;childLayout=stackLayout;horizontal=1;startSize=26;horizontalStack=0;resizeParent=1;resizeParentMax=0;resizeLast=0;collapsible=1;marginBottom=0;align=center;fontSize=14;" vertex="1" parent="1">
          <mxGeometry x="254" y="140" width="160" height="86" as="geometry" />
        </mxCell>
        <mxCell id="GHF8NvtgJmu9-mj9dW5s-35" value="id" style="text;strokeColor=none;fillColor=none;spacingLeft=4;spacingRight=4;overflow=hidden;rotatable=0;points=[[0,0.5],[1,0.5]];portConstraint=eastwest;fontSize=12;" vertex="1" parent="GHF8NvtgJmu9-mj9dW5s-17">
          <mxGeometry y="26" width="160" height="30" as="geometry" />
        </mxCell>
        <mxCell id="GHF8NvtgJmu9-mj9dW5s-20" value="classificação" style="text;strokeColor=none;fillColor=none;spacingLeft=4;spacingRight=4;overflow=hidden;rotatable=0;points=[[0,0.5],[1,0.5]];portConstraint=eastwest;fontSize=12;" vertex="1" parent="GHF8NvtgJmu9-mj9dW5s-17">
          <mxGeometry y="56" width="160" height="30" as="geometry" />
        </mxCell>
        <mxCell id="GHF8NvtgJmu9-mj9dW5s-26" value="" style="edgeStyle=entityRelationEdgeStyle;fontSize=12;html=1;endArrow=ERmany;startArrow=ERmany;align=center;exitX=0.481;exitY=0.927;exitDx=0;exitDy=0;exitPerimeter=0;entryX=0.5;entryY=0;entryDx=0;entryDy=0;" edge="1" parent="1" source="GHF8NvtgJmu9-mj9dW5s-2" target="GHF8NvtgJmu9-mj9dW5s-13">
          <mxGeometry width="100" height="100" relative="1" as="geometry">
            <mxPoint x="26" y="132.59000000000003" as="sourcePoint" />
            <mxPoint x="-100" y="210" as="targetPoint" />
          </mxGeometry>
        </mxCell>
        <mxCell id="GHF8NvtgJmu9-mj9dW5s-27" value="" style="edgeStyle=entityRelationEdgeStyle;fontSize=12;html=1;endArrow=ERmany;startArrow=ERmany;align=center;entryX=0.5;entryY=0;entryDx=0;entryDy=0;" edge="1" parent="1" target="GHF8NvtgJmu9-mj9dW5s-17">
          <mxGeometry width="100" height="100" relative="1" as="geometry">
            <mxPoint x="20" y="120" as="sourcePoint" />
            <mxPoint x="133.04" y="211.19" as="targetPoint" />
          </mxGeometry>
        </mxCell>
        <mxCell id="GHF8NvtgJmu9-mj9dW5s-28" value="" style="fontSize=12;html=1;endArrow=ERmany;startArrow=ERmany;align=center;entryX=0.525;entryY=1.047;entryDx=0;entryDy=0;entryPerimeter=0;exitX=0.563;exitY=0;exitDx=0;exitDy=0;exitPerimeter=0;" edge="1" parent="1" source="SqYTD-_AEtdcNH1bQ4jS-31" target="GHF8NvtgJmu9-mj9dW5s-20">
          <mxGeometry width="100" height="100" relative="1" as="geometry">
            <mxPoint x="250" y="330" as="sourcePoint" />
            <mxPoint x="470" y="330" as="targetPoint" />
          </mxGeometry>
        </mxCell>
        <mxCell id="SqYTD-_AEtdcNH1bQ4jS-31" value="Rotas" style="swimlane;fontStyle=0;childLayout=stackLayout;horizontal=1;startSize=26;horizontalStack=0;resizeParent=1;resizeParentMax=0;resizeLast=0;collapsible=1;marginBottom=0;align=center;fontSize=14;" parent="1" vertex="1">
          <mxGeometry x="150" y="360" width="160" height="266" as="geometry" />
        </mxCell>
        <mxCell id="SqYTD-_AEtdcNH1bQ4jS-47" value="id" style="text;strokeColor=none;fillColor=none;spacingLeft=4;spacingRight=4;overflow=hidden;rotatable=0;points=[[0,0.5],[1,0.5]];portConstraint=eastwest;fontSize=12;" parent="SqYTD-_AEtdcNH1bQ4jS-31" vertex="1">
          <mxGeometry y="26" width="160" height="30" as="geometry" />
        </mxCell>
        <mxCell id="SqYTD-_AEtdcNH1bQ4jS-32" value="Nome" style="text;strokeColor=none;fillColor=none;spacingLeft=4;spacingRight=4;overflow=hidden;rotatable=0;points=[[0,0.5],[1,0.5]];portConstraint=eastwest;fontSize=12;" parent="SqYTD-_AEtdcNH1bQ4jS-31" vertex="1">
          <mxGeometry y="56" width="160" height="30" as="geometry" />
        </mxCell>
        <mxCell id="SqYTD-_AEtdcNH1bQ4jS-33" value="preço" style="text;strokeColor=none;fillColor=none;spacingLeft=4;spacingRight=4;overflow=hidden;rotatable=0;points=[[0,0.5],[1,0.5]];portConstraint=eastwest;fontSize=12;" parent="SqYTD-_AEtdcNH1bQ4jS-31" vertex="1">
          <mxGeometry y="86" width="160" height="30" as="geometry" />
        </mxCell>
        <mxCell id="SqYTD-_AEtdcNH1bQ4jS-41" value="distancia_total" style="text;strokeColor=none;fillColor=none;spacingLeft=4;spacingRight=4;overflow=hidden;rotatable=0;points=[[0,0.5],[1,0.5]];portConstraint=eastwest;fontSize=12;" parent="SqYTD-_AEtdcNH1bQ4jS-31" vertex="1">
          <mxGeometry y="116" width="160" height="30" as="geometry" />
        </mxCell>
        <mxCell id="SqYTD-_AEtdcNH1bQ4jS-36" value="classificação" style="text;strokeColor=none;fillColor=none;spacingLeft=4;spacingRight=4;overflow=hidden;rotatable=0;points=[[0,0.5],[1,0.5]];portConstraint=eastwest;fontSize=12;" parent="SqYTD-_AEtdcNH1bQ4jS-31" vertex="1">
          <mxGeometry y="146" width="160" height="30" as="geometry" />
        </mxCell>
        <mxCell id="SqYTD-_AEtdcNH1bQ4jS-37" value="quantidade_pessoas" style="text;strokeColor=none;fillColor=none;spacingLeft=4;spacingRight=4;overflow=hidden;rotatable=0;points=[[0,0.5],[1,0.5]];portConstraint=eastwest;fontSize=12;" parent="SqYTD-_AEtdcNH1bQ4jS-31" vertex="1">
          <mxGeometry y="176" width="160" height="30" as="geometry" />
        </mxCell>
        <mxCell id="SqYTD-_AEtdcNH1bQ4jS-40" value="tempo_medio" style="text;strokeColor=none;fillColor=none;spacingLeft=4;spacingRight=4;overflow=hidden;rotatable=0;points=[[0,0.5],[1,0.5]];portConstraint=eastwest;fontSize=12;" parent="SqYTD-_AEtdcNH1bQ4jS-31" vertex="1">
          <mxGeometry y="206" width="160" height="30" as="geometry" />
        </mxCell>
        <mxCell id="SqYTD-_AEtdcNH1bQ4jS-38" value="comentarios" style="text;strokeColor=none;fillColor=none;spacingLeft=4;spacingRight=4;overflow=hidden;rotatable=0;points=[[0,0.5],[1,0.5]];portConstraint=eastwest;fontSize=12;" parent="SqYTD-_AEtdcNH1bQ4jS-31" vertex="1">
          <mxGeometry y="236" width="160" height="30" as="geometry" />
        </mxCell>
        <mxCell id="GHF8NvtgJmu9-mj9dW5s-32" value="" style="edgeStyle=entityRelationEdgeStyle;fontSize=12;html=1;endArrow=ERmandOne;startArrow=ERmandOne;align=center;exitX=1.015;exitY=0.042;exitDx=0;exitDy=0;exitPerimeter=0;entryX=0;entryY=0.25;entryDx=0;entryDy=0;" edge="1" parent="1" source="SqYTD-_AEtdcNH1bQ4jS-31" target="SqYTD-_AEtdcNH1bQ4jS-19">
          <mxGeometry width="100" height="100" relative="1" as="geometry">
            <mxPoint x="340" y="540" as="sourcePoint" />
            <mxPoint x="430" y="380" as="targetPoint" />
          </mxGeometry>
        </mxCell>
        <mxCell id="GHF8NvtgJmu9-mj9dW5s-33" value="" style="edgeStyle=entityRelationEdgeStyle;fontSize=12;html=1;endArrow=ERmany;startArrow=ERmany;align=center;exitX=0.5;exitY=0;exitDx=0;exitDy=0;entryX=0.547;entryY=1.016;entryDx=0;entryDy=0;entryPerimeter=0;" edge="1" parent="1" source="SqYTD-_AEtdcNH1bQ4jS-43" target="SqYTD-_AEtdcNH1bQ4jS-8">
          <mxGeometry width="100" height="100" relative="1" as="geometry">
            <mxPoint x="-140" y="850" as="sourcePoint" />
            <mxPoint x="-90" y="640" as="targetPoint" />
          </mxGeometry>
        </mxCell>
        <mxCell id="GHF8NvtgJmu9-mj9dW5s-34" value="" style="edgeStyle=entityRelationEdgeStyle;fontSize=12;html=1;endArrow=ERmany;startArrow=ERmany;align=center;exitX=0.613;exitY=-0.041;exitDx=0;exitDy=0;entryX=0.48;entryY=1.161;entryDx=0;entryDy=0;entryPerimeter=0;exitPerimeter=0;" edge="1" parent="1" source="SqYTD-_AEtdcNH1bQ4jS-43" target="SqYTD-_AEtdcNH1bQ4jS-38">
          <mxGeometry width="100" height="100" relative="1" as="geometry">
            <mxPoint x="70" y="730" as="sourcePoint" />
            <mxPoint x="-62.48000000000002" y="646.4799999999998" as="targetPoint" />
          </mxGeometry>
        </mxCell>
        <mxCell id="GHF8NvtgJmu9-mj9dW5s-37" value="id" style="text;strokeColor=none;fillColor=none;spacingLeft=4;spacingRight=4;overflow=hidden;rotatable=0;points=[[0,0.5],[1,0.5]];portConstraint=eastwest;fontSize=12;" vertex="1" parent="1">
          <mxGeometry x="-160" y="223" width="160" height="36" as="geometry" />
        </mxCell>
        <mxCell id="GHF8NvtgJmu9-mj9dW5s-39" value="" style="edgeStyle=entityRelationEdgeStyle;fontSize=12;html=1;endArrow=ERmany;startArrow=ERmany;align=center;entryX=0.388;entryY=0.923;entryDx=0;entryDy=0;entryPerimeter=0;exitX=0.31;exitY=-0.008;exitDx=0;exitDy=0;exitPerimeter=0;" edge="1" parent="1" source="SqYTD-_AEtdcNH1bQ4jS-31" target="GHF8NvtgJmu9-mj9dW5s-37">
          <mxGeometry width="100" height="100" relative="1" as="geometry">
            <mxPoint x="-40" y="360" as="sourcePoint" />
            <mxPoint x="60" y="260" as="targetPoint" />
          </mxGeometry>
        </mxCell>
      </root>
    </mxGraphModel>
  </diagram>
</mxfile>
